<svg xmlns="http://www.w3.org/2000/svg" viewBox="0 0 64.92 47.99"><defs><style>.cls-1{fill:#25253a;}</style></defs><title>icon-1</title><g id="Layer_2" data-name="Layer 2"><g id="Layer_1-2" data-name="Layer 1"><path class="cls-1" d="M9.78,48l-.28-.53c-1.55-3-3.1-6-4.65-9s-3.08-6-4.63-9L0,29l.45-.23c3.35-1.74,6.62-3.48,9.89-5.23,3-1.63,6.1-3.25,9.21-4.87l.16-.08.18,0c7.5,1.66,15.19,3.36,22.75,4.77l.18.07c1.7,1.13,2.53,2.25,2.55,3.43s-.82,2.35-2.54,3.55l-.19.08c-1.57.3-4.3-.32-7.18-1S28.3,28,27.64,29c-.16.24-.33,1.06,1.42,3.48,2.45.41,4.95.75,7.36,1.08s5,.68,7.44,1.09c2.34-1.37,4.74-2.75,7.15-4.12s4.91-2.81,7.29-4.21l.13-.08h.15c3,.16,4.83.9,5.73,2.27.79,1.19.81,2.77.06,4.85l-.06.18-.16.09c-3.66,2.05-7.37,4.05-11,6-3.31,1.79-6.74,3.64-10.11,5.52l-.2.06a96,96,0,0,1-12-.15c-8-.42-16.28-.86-20.62,2.57ZM1.35,29.47c1.47,2.8,2.93,5.66,4.4,8.52s2.91,5.69,4.37,8.47C14.84,43.19,23,43.62,30.93,44a96.85,96.85,0,0,0,11.76.16c3.35-1.86,6.74-3.7,10-5.47,3.53-1.91,7.19-3.88,10.78-5.89.57-1.67.57-2.91,0-3.78-.7-1-2.31-1.66-4.8-1.82-2.35,1.38-4.76,2.76-7.17,4.14s-4.91,2.81-7.29,4.21l-.16.09-.18,0c-2.53-.42-5.1-.78-7.59-1.12s-5.06-.69-7.59-1.12l-.2,0-.12-.16c-1.7-2.31-2.2-3.83-1.57-4.79,1-1.59,4.68-.76,8.88.2,2.59.59,5.27,1.21,6.67,1,1.35-1,2-1.85,2-2.66s-.69-1.66-2-2.56c-7.51-1.4-15.13-3.08-22.51-4.71-3.05,1.59-6,3.19-9,4.78S4.55,27.81,1.35,29.47ZM60,23.31a2.64,2.64,0,0,1-1.46-.69l-27.2-18L4,22.67a3,3,0,0,1-3.43-.06,2,2,0,0,1,.35-3l10.43-6.86V4.83c0-1.79,2-3.3,4.46-3.3S20.28,3,20.28,4.83V6.72L29.62.5a2.62,2.62,0,0,1,3.12,0L61.65,19.58a1.84,1.84,0,0,1,.86,1.53,1.87,1.87,0,0,1-.86,1.57A2.66,2.66,0,0,1,60,23.31ZM31.31,3.41,59.12,21.84a2.05,2.05,0,0,0,.84.48A1.75,1.75,0,0,0,61,21.89a1,1,0,0,0,.48-.78.85.85,0,0,0-.41-.7l-29-19.14a1.64,1.64,0,0,0-1.9.06L19.28,8.59V4.83c0-1.08-1.46-2.3-3.42-2.3s-3.46,1.21-3.46,2.3v8.42L1.51,20.41a1,1,0,0,0-.45.72,1,1,0,0,0,.26.77,2.08,2.08,0,0,0,2.17-.06Z"/></g></g></svg>