<svg xmlns="http://www.w3.org/2000/svg" viewBox="0 0 65.6 34.42"><defs><style>.cls-1{fill:#25253a;}</style></defs><title>icon-4</title><g id="Layer_2" data-name="Layer 2"><g id="Layer_1-2" data-name="Layer 1"><path class="cls-1" d="M17,34.42A17.21,17.21,0,0,1,17,0,17.55,17.55,0,0,1,32.59,9.61H60.93a4.83,4.83,0,0,1,4.67,4.67V18a4.68,4.68,0,0,1-4.23,4.66,4.17,4.17,0,0,1-4.22,3.57,4.11,4.11,0,0,1-4-3.33H51.93a4.14,4.14,0,0,1-4.19,3.33,4.05,4.05,0,0,1-4-3.33H42.52a4.05,4.05,0,0,1-4,3.33,4.16,4.16,0,0,1-4.19-3.33h-1.1A17.31,17.31,0,0,1,17,34.42ZM17,1a16.21,16.21,0,1,0,15.4,21.29l.11-.35h2.69l.05.44a3.16,3.16,0,0,0,3.27,2.89,3.1,3.1,0,0,0,3.05-2.88l0-.45h3l0,.45a3.1,3.1,0,0,0,3.05,2.88A3.14,3.14,0,0,0,51,22.39l0-.45h3l0,.45a3.1,3.1,0,0,0,3.05,2.88,3.21,3.21,0,0,0,3.28-3.1l0-.45h.45A3.68,3.68,0,0,0,64.6,18V14.29a3.87,3.87,0,0,0-3.7-3.67H32l-.14-.28A16.55,16.55,0,0,0,17,1Zm-6.5,21.52a5.35,5.35,0,0,1-5.1-5.31,5.21,5.21,0,1,1,10.41,0A5.39,5.39,0,0,1,10.53,22.52Zm0-9.61a4.21,4.21,0,0,0-4.1,4.3,4.32,4.32,0,0,0,4.1,4.31,4.37,4.37,0,0,0,4.31-4.31A4.21,4.21,0,0,0,10.53,12.91Z"/></g></g></svg>