<svg xmlns="http://www.w3.org/2000/svg" viewBox="0 0 330.84 90.18"><defs><style>.cls-1{fill:#25253a;}.cls-2{fill:#dc5c0c;}</style></defs><title>logo-dynamic-development</title><g id="Layer_2" data-name="Layer 2"><g id="Layer_1-2" data-name="Layer 1"><path class="cls-1" d="M67.52,36.38A8.12,8.12,0,0,1,60.6,33q-2.51-3.42-2.52-9.48t2.56-9.58a8.32,8.32,0,0,1,7.05-3.43,8.16,8.16,0,0,1,7.2,3.67h.22a27.93,27.93,0,0,1-.51-5V0h6.84V35.93H76.22L74.9,32.69h-.29A7.81,7.81,0,0,1,67.52,36.38Zm2.39-5.44a4.62,4.62,0,0,0,3.84-1.52Q75,27.9,75.08,24.26v-.74q0-4-1.24-5.77a4.62,4.62,0,0,0-4-1.74,4,4,0,0,0-3.54,1.93A10.32,10.32,0,0,0,65,23.56a9.78,9.78,0,0,0,1.27,5.54A4.16,4.16,0,0,0,69.91,30.94Z"/><path class="cls-1" d="M83.74,10.93h7.47L95.93,25a19.51,19.51,0,0,1,.83,4.34h.13a19.18,19.18,0,0,1,1-4.34l4.63-14.07h7.31L99.22,39.13A12.2,12.2,0,0,1,95.07,45a10.46,10.46,0,0,1-6.3,1.95,14.56,14.56,0,0,1-2.23,0V41.51A5,5,0,0,1,88,41.43a4.85,4.85,0,0,0,3.17-1.11A7.19,7.19,0,0,0,93.27,37l.4-1.23Z"/><path class="cls-1" d="M134.63,35.93H127.8V21.33a7,7,0,0,0-1-4.06,3.5,3.5,0,0,0-3.06-1.35,4.61,4.61,0,0,0-4.14,1.91q-1.28,1.91-1.27,6.34V35.93h-6.82v-25h5.21l.92,3.2h.38a7.2,7.2,0,0,1,3.14-2.74,10.71,10.71,0,0,1,4.55-.93q4.36,0,6.62,2.36t2.26,6.81Z"/><path class="cls-1" d="M154.78,35.93l-1.32-3.4h-.18a10.08,10.08,0,0,1-3.54,3,11.46,11.46,0,0,1-4.75.84,7.68,7.68,0,0,1-5.67-2.06,7.9,7.9,0,0,1-2.07-5.86A6.6,6.6,0,0,1,140,22.59q2.79-1.89,8.4-2.09l4.34-.13v-1.1q0-3.8-3.89-3.8a17.75,17.75,0,0,0-7,1.81l-2.26-4.61a20.34,20.34,0,0,1,9.57-2.26q5,0,7.72,2.19t2.68,6.66V35.93Zm-2-11.59-2.64.09a8.45,8.45,0,0,0-4.43,1.07,3.37,3.37,0,0,0-1.46,3q0,2.88,3.31,2.89A5.24,5.24,0,0,0,151.35,30a4.79,4.79,0,0,0,1.42-3.62Z"/><path class="cls-1" d="M186.21,35.93h-6.82V21.33a7.34,7.34,0,0,0-.91-4.06,3.18,3.18,0,0,0-2.85-1.35,4.13,4.13,0,0,0-3.8,1.92q-1.19,1.92-1.19,6.33V35.93h-6.82v-25H169l.92,3.2h.38a7,7,0,0,1,2.91-2.69,9.43,9.43,0,0,1,4.36-1q5.61,0,7.6,3.67h.6a6.76,6.76,0,0,1,3-2.7,9.9,9.9,0,0,1,4.42-1q4.25,0,6.43,2.18t2.18,7v16.3H195V21.33a7.36,7.36,0,0,0-.91-4.06,3.19,3.19,0,0,0-2.85-1.35,4.25,4.25,0,0,0-3.74,1.79q-1.24,1.79-1.24,5.68Z"/><path class="cls-1" d="M205.76,4.46q0-3.33,3.71-3.33t3.71,3.33a3.25,3.25,0,0,1-.93,2.47,3.9,3.9,0,0,1-2.78.88Q205.75,7.82,205.76,4.46Zm7.11,31.47H206v-25h6.82Z"/><path class="cls-1" d="M227.43,36.38q-11.68,0-11.67-12.82,0-6.38,3.18-9.74t9.1-3.37a17.36,17.36,0,0,1,7.78,1.7l-2,5.28q-1.61-.65-3-1.06A9.66,9.66,0,0,0,228,16q-5.33,0-5.32,7.56,0,7.33,5.32,7.34a12.19,12.19,0,0,0,3.65-.53A13.2,13.2,0,0,0,235,28.68v5.84A11,11,0,0,1,231.69,36,18.74,18.74,0,0,1,227.43,36.38Z"/><path class="cls-1" d="M67.18,79.63a8.12,8.12,0,0,1-6.92-3.42q-2.51-3.42-2.52-9.48t2.56-9.58a8.32,8.32,0,0,1,7.05-3.43,8.16,8.16,0,0,1,7.2,3.67h.22a27.93,27.93,0,0,1-.51-5v-9.7h6.84v36.5H75.88l-1.32-3.24h-.29A7.81,7.81,0,0,1,67.18,79.63Zm2.39-5.44a4.62,4.62,0,0,0,3.84-1.52q1.22-1.52,1.33-5.17v-.74q0-4-1.24-5.77a4.62,4.62,0,0,0-4-1.74,4,4,0,0,0-3.54,1.93,10.32,10.32,0,0,0-1.26,5.63,9.78,9.78,0,0,0,1.27,5.54A4.16,4.16,0,0,0,69.58,74.19Z"/><path class="cls-1" d="M97.67,79.63q-6,0-9.44-3.33t-3.4-9.44q0-6.28,3.14-9.72t8.69-3.43q5.3,0,8.25,3t3,8.34v3.31H91.74a6.55,6.55,0,0,0,1.72,4.54A6.06,6.06,0,0,0,98,74.55a18.85,18.85,0,0,0,4.27-.47,21.3,21.3,0,0,0,4.2-1.5v5.28a15.94,15.94,0,0,1-3.82,1.33A24,24,0,0,1,97.67,79.63Zm-1-21.07a4.32,4.32,0,0,0-3.4,1.38,6.36,6.36,0,0,0-1.41,3.9h9.57a5.69,5.69,0,0,0-1.32-3.9A4.47,4.47,0,0,0,96.71,58.56Z"/><path class="cls-1" d="M117.53,79.18l-9.53-25h7.13L120,68.42a25.46,25.46,0,0,1,1,5.12h.13a22.31,22.31,0,0,1,1-5.12l4.81-14.25h7.13l-9.53,25Z"/><path class="cls-1" d="M146.21,79.63q-6,0-9.44-3.33t-3.4-9.44q0-6.28,3.14-9.72t8.69-3.43q5.3,0,8.25,3t3,8.34v3.31H140.28A6.55,6.55,0,0,0,142,72.92a6.06,6.06,0,0,0,4.52,1.63,18.85,18.85,0,0,0,4.27-.47,21.3,21.3,0,0,0,4.2-1.5v5.28a15.94,15.94,0,0,1-3.82,1.33A24,24,0,0,1,146.21,79.63Zm-1-21.07a4.32,4.32,0,0,0-3.4,1.38,6.36,6.36,0,0,0-1.41,3.9H150a5.69,5.69,0,0,0-1.32-3.9A4.47,4.47,0,0,0,145.24,58.56Z"/><path class="cls-1" d="M166,79.18H159.2V44.38H166Z"/><path class="cls-1" d="M193.16,66.63q0,6.1-3.22,9.55t-9,3.44A12.52,12.52,0,0,1,174.62,78a10.48,10.48,0,0,1-4.23-4.53,15.23,15.23,0,0,1-1.47-6.89q0-6.13,3.2-9.53t9-3.4a12.64,12.64,0,0,1,6.35,1.57,10.47,10.47,0,0,1,4.23,4.5A15.07,15.07,0,0,1,193.16,66.63Zm-17.29,0a10.49,10.49,0,0,0,1.22,5.61,4.36,4.36,0,0,0,4,1.9A4.28,4.28,0,0,0,185,72.26a10.62,10.62,0,0,0,1.2-5.62A10.32,10.32,0,0,0,185,61.06a5.13,5.13,0,0,0-7.89,0A10.31,10.31,0,0,0,175.87,66.63Z"/><path class="cls-1" d="M209.78,79.63a8.29,8.29,0,0,1-6.91-3.2h-.36q.36,3.13.36,3.62V90.18H196v-36h5.55l1,3.24h.31A7.89,7.89,0,0,1,210,53.7a8.12,8.12,0,0,1,6.93,3.42q2.5,3.42,2.5,9.51a18.75,18.75,0,0,1-1.17,7,9.75,9.75,0,0,1-3.34,4.5A8.57,8.57,0,0,1,209.78,79.63Zm-2-20.46a4.3,4.3,0,0,0-3.69,1.55q-1.16,1.55-1.21,5.13v.74q0,4,1.2,5.77a4.27,4.27,0,0,0,3.79,1.74q4.58,0,4.58-7.56A10.82,10.82,0,0,0,211.31,61,3.86,3.86,0,0,0,207.76,59.16Z"/><path class="cls-1" d="M244.67,79.18h-6.82V64.57a7.34,7.34,0,0,0-.91-4.06,3.18,3.18,0,0,0-2.85-1.35,4.13,4.13,0,0,0-3.8,1.92Q229.1,63,229.1,67.41V79.18h-6.82v-25h5.21l.92,3.2h.38a7,7,0,0,1,2.91-2.69,9.43,9.43,0,0,1,4.36-1q5.61,0,7.6,3.67h.6a6.76,6.76,0,0,1,3-2.7,9.9,9.9,0,0,1,4.42-1q4.25,0,6.43,2.18t2.18,7v16.3h-6.84V64.57a7.36,7.36,0,0,0-.91-4.06,3.19,3.19,0,0,0-2.85-1.35,4.25,4.25,0,0,0-3.74,1.79q-1.24,1.79-1.24,5.68Z"/><path class="cls-1" d="M275.83,79.63q-6,0-9.44-3.33T263,66.85q0-6.28,3.14-9.72t8.69-3.43q5.3,0,8.25,3t3,8.34v3.31H269.9a6.55,6.55,0,0,0,1.72,4.54,6.06,6.06,0,0,0,4.52,1.63,18.85,18.85,0,0,0,4.27-.47,21.3,21.3,0,0,0,4.2-1.5v5.28a15.94,15.94,0,0,1-3.82,1.33A24,24,0,0,1,275.83,79.63Zm-1-21.07a4.32,4.32,0,0,0-3.4,1.38,6.36,6.36,0,0,0-1.41,3.9h9.57a5.69,5.69,0,0,0-1.32-3.9A4.47,4.47,0,0,0,274.86,58.56Z"/><path class="cls-1" d="M311.74,79.18h-6.82V64.57a7,7,0,0,0-1-4.06,3.5,3.5,0,0,0-3.06-1.35,4.61,4.61,0,0,0-4.14,1.91q-1.28,1.91-1.27,6.34V79.18h-6.82v-25h5.21l.92,3.2h.38a7.2,7.2,0,0,1,3.14-2.74,10.71,10.71,0,0,1,4.55-.93q4.36,0,6.62,2.36t2.26,6.81Z"/><path class="cls-1" d="M326.55,74.19a14.81,14.81,0,0,0,4.29-.78v5.08a15.32,15.32,0,0,1-6.26,1.14q-4.09,0-6-2.07t-1.87-6.21V59.29h-3.27V56.41l3.76-2.28,2-5.28h4.36v5.32h7v5.12h-7V71.35a2.66,2.66,0,0,0,.82,2.15A3.21,3.21,0,0,0,326.55,74.19Z"/><path class="cls-2" d="M29.85.44H42.23l-30,78.73H0Z"/></g></g></svg>